<svg width="35" height="35" viewBox="0 0 35 35" fill="none" xmlns="http://www.w3.org/2000/svg">
<circle cx="17.1969" cy="17.1969" r="16.6969" fill="white" fill-opacity="0.25" stroke="#DEA77D"/>
<path fill-rule="evenodd" clip-rule="evenodd" d="M10.8067 17.6234C10.8067 16.2752 11.2065 14.9573 11.9555 13.8363C12.7045 12.7153 13.7691 11.8416 15.0147 11.3257C16.2603 10.8098 17.6309 10.6748 18.9531 10.9378C20.2754 11.2008 21.49 11.85 22.4434 12.8034C23.3967 13.7567 24.0459 14.9713 24.3089 16.2936C24.5719 17.6158 24.4369 18.9864 23.921 20.232C23.4051 21.4776 22.5314 22.5422 21.4104 23.2912C20.2894 24.0402 18.9715 24.44 17.6233 24.44C16.3336 24.4423 15.0701 24.0767 13.9808 23.3862C13.884 23.3249 13.775 23.2851 13.6615 23.2695C13.5479 23.2539 13.4323 23.2628 13.3224 23.2956L11.0128 23.9845L11.8829 21.9499C11.9335 21.8315 11.9548 21.7026 11.945 21.5742C11.9353 21.4457 11.8947 21.3216 11.8268 21.2121C11.1579 20.1348 10.8045 18.8915 10.8067 17.6234ZM17.6233 9.20293C12.9728 9.20293 9.20282 12.9729 9.20282 17.6234C9.20282 19.0974 9.58215 20.4848 10.2494 21.6917L8.866 24.9268C8.80613 25.0669 8.78742 25.2212 8.81208 25.3716C8.83673 25.522 8.90372 25.6622 9.0052 25.7759C9.10669 25.8896 9.23846 25.972 9.3851 26.0135C9.53173 26.055 9.68715 26.0538 9.83316 26.0102L13.4419 24.934C14.7146 25.6633 16.1564 26.046 17.6233 26.0439C22.2738 26.0439 26.0438 22.2739 26.0438 17.6234C26.0438 12.9729 22.2738 9.20293 17.6233 9.20293ZM19.4622 19.3733L18.4076 20.1159C17.8266 19.7816 17.2931 19.3708 16.8214 18.8945C16.3149 18.3888 15.8771 17.8188 15.519 17.1992L16.1886 16.6306C16.3281 16.5122 16.423 16.3497 16.4574 16.17C16.4918 15.9902 16.4638 15.8042 16.3779 15.6426L15.5246 14.0387C15.4678 13.9322 15.3877 13.8398 15.2903 13.7686C15.1928 13.6973 15.0806 13.649 14.9619 13.6272C14.8431 13.6054 14.721 13.6106 14.6046 13.6426C14.4882 13.6745 14.3805 13.7324 14.2896 13.8117L14.0362 14.0323C13.4275 14.5632 13.0674 15.4357 13.3657 16.3194C13.8457 17.7173 14.64 18.9865 15.6874 20.0293C17.1413 21.4832 18.6185 22.0558 19.483 22.2787C20.1791 22.4576 20.8375 22.2178 21.3018 21.8393L21.7758 21.4527C21.8757 21.3712 21.9545 21.2669 22.0055 21.1484C22.0565 21.03 22.0782 20.9011 22.0688 20.7725C22.0593 20.6439 22.019 20.5195 21.9513 20.4098C21.8835 20.3001 21.7903 20.2083 21.6796 20.1423L20.3339 19.3404C20.2008 19.261 20.0476 19.2218 19.8928 19.2277C19.7379 19.2335 19.5881 19.2841 19.4614 19.3733H19.4622Z" fill="#DEA77D"/>
</svg>
