<svg width="35" height="35" viewBox="0 0 35 35" fill="none" xmlns="http://www.w3.org/2000/svg">
<circle cx="17.1969" cy="17.1969" r="16.6969" fill="white" stroke="#A58BB5"/>
<path fill-rule="evenodd" clip-rule="evenodd" d="M10.807 17.6234C10.807 16.2752 11.2068 14.9573 11.9558 13.8363C12.7048 12.7153 13.7694 11.8416 15.015 11.3257C16.2605 10.8098 17.6311 10.6748 18.9534 10.9378C20.2757 11.2008 21.4903 11.85 22.4436 12.8034C23.3969 13.7567 24.0461 14.9713 24.3091 16.2936C24.5722 17.6158 24.4372 18.9864 23.9212 20.232C23.4053 21.4776 22.5316 22.5422 21.4106 23.2912C20.2897 24.0402 18.9717 24.44 17.6235 24.44C16.3339 24.4423 15.0703 24.0767 13.9811 23.3862C13.8842 23.3249 13.7753 23.2851 13.6617 23.2695C13.5481 23.2539 13.4325 23.2628 13.3227 23.2956L11.0131 23.9845L11.8832 21.9499C11.9338 21.8315 11.9551 21.7026 11.9453 21.5742C11.9355 21.4457 11.895 21.3216 11.827 21.2121C11.1582 20.1348 10.8048 18.8915 10.807 17.6234ZM17.6235 9.20293C12.973 9.20293 9.20307 12.9729 9.20307 17.6234C9.20307 19.0974 9.58239 20.4848 10.2496 21.6917L8.86625 24.9268C8.80637 25.0669 8.78767 25.2212 8.81232 25.3716C8.83697 25.522 8.90397 25.6622 9.00545 25.7759C9.10693 25.8896 9.23871 25.972 9.38534 26.0135C9.53197 26.055 9.68739 26.0538 9.8334 26.0102L13.4422 24.934C14.7149 25.6633 16.1567 26.046 17.6235 26.0439C22.2741 26.0439 26.044 22.2739 26.044 17.6234C26.044 12.9729 22.2741 9.20293 17.6235 9.20293ZM19.4624 19.3733L18.4079 20.1159C17.8268 19.7816 17.2933 19.3708 16.8216 18.8945C16.3152 18.3888 15.8773 17.8188 15.5192 17.1992L16.1889 16.6306C16.3284 16.5122 16.4232 16.3497 16.4577 16.17C16.4921 15.9902 16.464 15.8042 16.3781 15.6426L15.5248 14.0387C15.4681 13.9322 15.388 13.8398 15.2905 13.7686C15.1931 13.6973 15.0808 13.649 14.9621 13.6272C14.8434 13.6054 14.7213 13.6106 14.6049 13.6426C14.4885 13.6745 14.3808 13.7324 14.2898 13.8117L14.0364 14.0323C13.4277 14.5632 13.0677 15.4357 13.366 16.3194C13.846 17.7173 14.6402 18.9865 15.6876 20.0293C17.1416 21.4832 18.6188 22.0558 19.4833 22.2787C20.1794 22.4576 20.8378 22.2178 21.3021 21.8393L21.776 21.4527C21.876 21.3712 21.9548 21.2669 22.0058 21.1484C22.0568 21.03 22.0785 20.9011 22.069 20.7725C22.0596 20.6439 22.0193 20.5195 21.9515 20.4098C21.8838 20.3001 21.7906 20.2083 21.6798 20.1423L20.3341 19.3404C20.2011 19.261 20.0479 19.2218 19.893 19.2277C19.7382 19.2335 19.5883 19.2841 19.4616 19.3733H19.4624Z" fill="#A58BB5"/>
</svg>
