<svg width="25" height="25" viewBox="0 0 25 25" fill="none" xmlns="http://www.w3.org/2000/svg">
<path d="M2.24452 12.3168C2.24571 17.3653 5.9168 21.6638 10.9029 22.455V15.2827H8.2993V12.3168H10.9059V10.0591C10.7894 8.98932 11.1548 7.92312 11.9031 7.14968C12.6513 6.37625 13.7048 5.97575 14.7779 6.05681C15.5481 6.06925 16.3164 6.13785 17.0767 6.26206V8.78557H15.7795C15.333 8.72708 14.884 8.87457 14.5591 9.18649C14.2342 9.49841 14.0686 9.94099 14.1088 10.3896V12.3168H16.9525L16.4979 15.2837H14.1088V22.455C19.5011 21.6028 23.2824 16.6781 22.7133 11.2486C22.1442 5.81911 17.4239 1.78555 11.972 2.07008C6.52018 2.3546 2.24539 6.85759 2.24452 12.3168Z" fill="white"/>
</svg>
