<svg width="24" height="24" viewBox="0 0 24 24" fill="none" xmlns="http://www.w3.org/2000/svg">
<path d="M11.6686 20.4566C9.27696 20.4566 8.99501 20.444 8.06168 20.4032C7.33384 20.3792 6.61543 20.2313 5.93737 19.9657C4.7642 19.5091 3.83654 18.5811 3.38043 17.4077C3.12503 16.7272 2.98728 16.0082 2.97307 15.2815C2.91862 14.3501 2.91862 14.0448 2.91862 11.6716C2.91862 9.27316 2.93126 8.99316 2.97307 8.06469C2.98759 7.33894 3.12534 6.62094 3.38043 5.94135C3.83604 4.76645 4.76521 3.83763 5.94029 3.38246C6.61953 3.12599 7.33771 2.98788 8.06362 2.97413C8.9921 2.92163 9.29737 2.92163 11.6686 2.92163C14.0797 2.92163 14.3568 2.93427 15.2756 2.97413C16.0034 2.988 16.7234 3.1261 17.4047 3.38246C18.5795 3.83815 19.5085 4.76679 19.9646 5.94135C20.2243 6.63085 20.3628 7.36007 20.3739 8.09677C20.4283 9.02816 20.4283 9.33246 20.4283 11.7047C20.4283 14.0769 20.4147 14.388 20.3739 15.3087C20.3594 16.0361 20.2213 16.7558 19.9656 17.4369C19.5083 18.6111 18.5792 19.5394 17.4047 19.9958C16.7244 20.2507 16.0058 20.3884 15.2795 20.4032C14.351 20.4566 14.0467 20.4566 11.6686 20.4566ZM11.6356 4.46066C9.25751 4.46066 9.01057 4.47233 8.0821 4.51413C7.52791 4.52147 6.97909 4.62374 6.45946 4.81649C5.69213 5.11011 5.08495 5.71482 4.7882 6.48094C4.59397 7.00623 4.49168 7.56105 4.48584 8.12108C4.43432 9.06316 4.43432 9.3101 4.43432 11.6716C4.43432 14.005 4.44307 14.2879 4.48584 15.2241C4.49455 15.7785 4.59677 16.3274 4.7882 16.8477C5.08539 17.6134 5.69246 18.2176 6.45946 18.5112C6.97873 18.7052 7.52778 18.8076 8.0821 18.8136C9.02321 18.868 9.27112 18.868 11.6356 18.868C14.0204 18.868 14.2674 18.8564 15.1881 18.8136C15.7426 18.8068 16.2919 18.7045 16.8117 18.5112C17.5744 18.2151 18.1776 17.6122 18.4742 16.8497C18.668 16.324 18.7703 15.7689 18.7765 15.2086H18.7872C18.829 14.2791 18.829 14.0312 18.829 11.6561C18.829 9.28094 18.8183 9.03108 18.7765 8.1026C18.7678 7.54887 18.6656 7.0006 18.4742 6.48094C18.1783 5.71733 17.5749 5.1133 16.8117 4.81649C16.292 4.62277 15.7427 4.52047 15.1881 4.51413C14.2479 4.46066 14.002 4.46066 11.6356 4.46066ZM11.6686 16.1623C9.85056 16.1635 8.21084 15.0693 7.51418 13.39C6.81753 11.7107 7.20117 9.77709 8.48618 8.49097C9.77119 7.20485 11.7045 6.81953 13.3844 7.51473C15.0643 8.20993 16.1599 9.8487 16.1603 11.6668C16.1576 14.147 14.1488 16.1575 11.6686 16.1623ZM11.6686 8.74816C10.0578 8.74816 8.75196 10.054 8.75196 11.6648C8.75196 13.2757 10.0578 14.5815 11.6686 14.5815C13.2795 14.5815 14.5853 13.2757 14.5853 11.6648C14.5815 10.0555 13.2779 8.7519 11.6686 8.74816ZM16.3353 8.05497C15.7572 8.05282 15.2901 7.58304 15.2911 7.00497C15.2922 6.42691 15.7611 5.95886 16.3392 5.95886C16.9172 5.95886 17.3862 6.4269 17.3872 7.00496C17.3875 7.28386 17.2767 7.55138 17.0793 7.7484C16.8819 7.94543 16.6142 8.05574 16.3353 8.05497Z" fill="white"/>
</svg>
