<svg xmlns="http://www.w3.org/2000/svg" viewBox="0 0 1080 1080"><defs><style>.cls-1{fill:#673ab7;}.cls-2{fill:#fff;}</style></defs><title>Logo Wibinx (Vector)</title><g id="ungu"><circle class="cls-1" cx="237.76" cy="540" r="129.71"/><rect class="cls-2" x="200.76" y="531.54" width="74.01" height="16.92"/><path class="cls-2" d="M160.58,540c0,.71,0,1.41.07,2.11,1.07,15.66,14.75,27.49,30.45,27.49h37.15v16.92H190.19a42.3,42.3,0,0,1-12.69-1.74c-18.55-5.54-34.37-24.61-34.36-45.31a46.16,46.16,0,0,1,3.71-18.12c7.32-17.2,24.77-27.87,43.46-27.87h37.94v16.91H191.1c-15.7,0-29.38,11.84-30.45,27.5C160.61,538.59,160.58,539.29,160.58,540Z"/><path class="cls-2" d="M315,540c0,.71,0,1.41-.07,2.11-1.07,15.66-14.75,27.49-30.45,27.49H247.28v16.92h38.06A42.3,42.3,0,0,0,298,584.78c18.55-5.54,34.37-24.61,34.36-45.31a46.16,46.16,0,0,0-3.71-18.12c-7.32-17.2-24.77-27.87-43.46-27.87H247.28v16.91h37.15c15.7,0,29.38,11.84,30.45,27.5C314.92,538.59,315,539.29,315,540Z"/><path class="cls-1" d="M482.08,528.93l-21.43,75.18H426.71l-38.15-134h33.93l22.9,91.9h.81l24.35-91.9h23.06L518,562.05h.82l22.89-91.9h33.77l-38.15,134H503.51Z"/><path class="cls-1" d="M609.87,486.39a17.05,17.05,0,1,1-17-17.05A17,17,0,0,1,609.87,486.39ZM578,604.11h28.74v-83.3H578Z"/><path class="cls-1" d="M678.38,606.54a36.88,36.88,0,0,1-27.27-11.85h-.33v9.42H622.37V464.47h28.74v64.3c6.82-6.66,16.07-10.39,27.27-10.39,24.36,0,41.41,19.8,41.41,44.16S702.74,606.54,678.38,606.54Zm-8.6-63.65c-10.72,0-19.32,8.12-19.32,19.65,0,11.37,8.12,19.48,19.32,19.48,11.69,0,19.48-8.11,19.48-19.48C689.26,551,680.66,542.89,669.78,542.89Z"/><path class="cls-1" d="M760.38,486.39a17,17,0,1,1-17-17.05A17,17,0,0,1,760.38,486.39ZM728.56,604.11H757.3v-83.3H728.56Z"/><path class="cls-1" d="M772.88,520.81h28.74v8.77H802c6.49-6.5,14.77-11.2,23.87-11.2,15.26,0,36.53,7.63,36.53,30.85v54.88H833.61V557c0-8.28-5.68-16.24-14.94-16.24-8.6,0-17,8-17,16.24v47.09H772.88Z"/><path class="cls-1" d="M937.2,604.11l-18.35-23.55-18.34,23.55H865.76l35.56-43.52-30.53-39.78H904.4l14.45,19.32,14.46-19.32h33.61l-30.53,39.78L972,604.11Z"/></g></svg>