<svg width="196" height="43" viewBox="0 0 196 43" fill="none" xmlns="http://www.w3.org/2000/svg">
<path d="M21.5259 42.5178C33.1338 42.5178 42.5438 33.1078 42.5438 21.5C42.5438 9.89218 33.1338 0.482178 21.5259 0.482178C9.91812 0.482178 0.508118 9.89218 0.508118 21.5C0.508118 33.1078 9.91812 42.5178 21.5259 42.5178Z" fill="#673AB7"/>
<path d="M27.5229 20.1292H15.5306V22.8708H27.5229V20.1292Z" fill="white"/>
<path d="M9.0199 21.5C9.0199 21.615 9.0199 21.7285 9.03124 21.8419C9.20462 24.3794 11.4213 26.2963 13.9653 26.2963H19.9849V29.038H13.8178C13.1221 29.0489 12.4287 28.9538 11.7616 28.756C8.75578 27.8583 6.19235 24.7683 6.19397 21.4141C6.19422 20.4049 6.39871 19.4061 6.79513 18.478C7.98124 15.691 10.8088 13.962 13.8373 13.962H19.9849V16.7021H13.9653C11.4213 16.7021 9.20462 18.6206 9.03124 21.1581C9.02476 21.2715 9.0199 21.3849 9.0199 21.5Z" fill="white"/>
<path d="M34.0417 21.5C34.0417 21.615 34.0417 21.7285 34.0303 21.8419C33.857 24.3794 31.6403 26.2963 29.0963 26.2963H23.0685V29.038H29.2357C29.9298 29.0484 30.6215 28.9533 31.2871 28.756C34.2929 27.8583 36.8563 24.7683 36.8547 21.4141C36.8544 20.4049 36.6499 19.4061 36.2535 18.478C35.0674 15.691 32.2398 13.962 29.2114 13.962H23.0685V16.7021H29.0882C31.6322 16.7021 33.8489 18.6206 34.0223 21.1581C34.0287 21.2715 34.0417 21.3849 34.0417 21.5Z" fill="white"/>
<path d="M61.1148 19.7063L57.6424 31.8882H52.1428L45.9611 10.1752H51.459L55.1697 25.0664H55.3009L59.2465 10.1752H62.9831L66.9352 25.0729H67.0681L70.7771 10.1817H76.2491L70.0674 31.8947H64.5873L61.1148 19.7063Z" fill="#673AB7"/>
<path d="M81.8215 12.8132C81.8215 13.36 81.6593 13.8944 81.3553 14.3489C81.0514 14.8034 80.6194 15.1575 80.1141 15.3664C79.6089 15.5753 79.053 15.6295 78.5168 15.5222C77.9807 15.415 77.4884 15.151 77.1024 14.7639C76.7163 14.3767 76.4539 13.8836 76.3482 13.3472C76.2425 12.8107 76.2984 12.255 76.5087 11.7503C76.7191 11.2456 77.0744 10.8147 77.5298 10.5121C77.9852 10.2095 78.5201 10.0489 79.0669 10.0505C79.4293 10.0505 79.7882 10.122 80.1229 10.2609C80.4576 10.3999 80.7617 10.6035 81.0176 10.8601C81.2734 11.1168 81.4762 11.4214 81.6141 11.7565C81.7521 12.0917 81.8226 12.4508 81.8215 12.8132ZM76.6574 31.8882H81.3143V18.3905H76.6574V31.8882Z" fill="#673AB7"/>
<path d="M92.9227 32.2819C92.0932 32.2861 91.272 32.1175 90.5112 31.7869C89.7505 31.4563 89.0669 30.971 88.5039 30.3618H88.4505V31.8882H83.847V9.26135H88.5039V19.6803C89.609 18.6012 91.1079 17.9968 92.9227 17.9968C96.8699 17.9968 99.6326 21.2051 99.6326 25.1523C99.6326 29.0995 96.8699 32.2819 92.9227 32.2819ZM91.5292 21.9683C89.7921 21.9683 88.3986 23.284 88.3986 25.1523C88.3986 26.9947 89.7143 28.3088 91.5292 28.3088C93.4234 28.3088 94.6856 26.9947 94.6856 25.1523C94.6856 23.2824 93.2921 21.9683 91.5292 21.9683Z" fill="#673AB7"/>
<path d="M106.21 12.8132C106.208 13.3577 106.045 13.8895 105.742 14.3414C105.438 14.7933 105.007 15.1451 104.504 15.3524C104 15.5596 103.447 15.613 102.913 15.5058C102.379 15.3986 101.889 15.1356 101.504 14.7501C101.12 14.3645 100.858 13.8737 100.753 13.3395C100.647 12.8054 100.702 12.252 100.911 11.7491C101.12 11.2462 101.473 10.8165 101.926 10.5142C102.378 10.2118 102.911 10.0505 103.455 10.0505C103.818 10.0505 104.176 10.122 104.511 10.2609C104.846 10.3999 105.15 10.6035 105.406 10.8602C105.662 11.1168 105.864 11.4214 106.002 11.7566C106.14 12.0917 106.211 12.4508 106.21 12.8132ZM101.054 31.8882H105.711V18.3905H101.054V31.8882Z" fill="#673AB7"/>
<path d="M108.235 18.3905H112.892V19.8116H112.954C114.005 18.7583 115.347 17.9968 116.822 17.9968C119.294 17.9968 122.741 19.2331 122.741 22.9956V31.8882H118.076V24.2546C118.076 22.913 117.155 21.6232 115.655 21.6232C114.261 21.6232 112.9 22.9194 112.9 24.2546V31.885H108.235V18.3905Z" fill="#673AB7"/>
<path d="M134.861 31.8882L131.888 28.0722L128.916 31.8882H123.285L129.047 24.8363L124.1 18.3905H129.546L131.888 21.5211L134.231 18.3905H139.677L134.73 24.8363L140.5 31.8882H134.861Z" fill="#673AB7"/>
<rect x="153" y="18" width="43" height="14" rx="2" fill="#673AB7"/>
<path d="M162.367 24.692C162.671 24.74 162.947 24.864 163.195 25.064C163.451 25.264 163.651 25.512 163.795 25.808C163.947 26.104 164.023 26.42 164.023 26.756C164.023 27.18 163.915 27.564 163.699 27.908C163.483 28.244 163.167 28.512 162.751 28.712C162.343 28.904 161.859 29 161.299 29H158.179V20.636H161.179C161.747 20.636 162.231 20.732 162.631 20.924C163.031 21.108 163.331 21.36 163.531 21.68C163.731 22 163.831 22.36 163.831 22.76C163.831 23.256 163.695 23.668 163.423 23.996C163.159 24.316 162.807 24.548 162.367 24.692ZM159.271 24.248H161.107C161.619 24.248 162.015 24.128 162.295 23.888C162.575 23.648 162.715 23.316 162.715 22.892C162.715 22.468 162.575 22.136 162.295 21.896C162.015 21.656 161.611 21.536 161.083 21.536H159.271V24.248ZM161.203 28.1C161.747 28.1 162.171 27.972 162.475 27.716C162.779 27.46 162.931 27.104 162.931 26.648C162.931 26.184 162.771 25.82 162.451 25.556C162.131 25.284 161.703 25.148 161.167 25.148H159.271V28.1H161.203Z" fill="white"/>
<path d="M168.43 21.524V24.32H171.478V25.22H168.43V28.1H171.838V29H167.338V20.624H171.838V21.524H168.43Z" fill="white"/>
<path d="M180.439 20.636V21.524H178.159V29H177.067V21.524H174.775V20.636H180.439Z" fill="white"/>
<path d="M188.527 27.14H184.879L184.207 29H183.055L186.079 20.684H187.339L190.351 29H189.199L188.527 27.14ZM188.215 26.252L186.703 22.028L185.191 26.252H188.215Z" fill="white"/>
</svg>
