<svg width="27" height="28" viewBox="0 0 27 28" fill="none" xmlns="http://www.w3.org/2000/svg">
<rect width="27" height="28" rx="10" fill="#FF0000"/>
<path d="M13.0099 19H12.9939C12.9444 19 7.98606 18.9906 6.73509 18.6569C6.0472 18.4749 5.50998 17.947 5.32505 17.2713C5.1001 16.025 4.99147 14.761 5.00052 13.4953C4.99471 12.2275 5.10628 10.9617 5.33385 9.71375C5.52386 9.03744 6.05871 8.5071 6.74548 8.31402C7.96208 8 12.7837 8 12.9883 8H13.0051C13.0555 8 18.0266 8.00942 19.2647 8.34306C19.9512 8.52599 20.4873 9.05282 20.6732 9.72709C20.9053 10.9781 21.0142 12.2481 20.9985 13.5196C21.0041 14.7859 20.8923 16.0501 20.6644 17.2965C20.4771 17.9713 19.9395 18.4981 19.252 18.6805C18.037 18.9969 13.2145 19 13.0099 19ZM11.4112 11.1441L11.4072 15.8543L15.5734 13.4992L11.4112 11.1441Z" fill="white"/>
</svg>
