<svg width="36" height="36" viewBox="0 0 36 36" fill="none" xmlns="http://www.w3.org/2000/svg">
<circle cx="17.9341" cy="17.9341" r="17.9341" fill="#393B44"/>
<path fill-rule="evenodd" clip-rule="evenodd" d="M12.7034 16.8791C12.7034 15.8446 13.0102 14.8333 13.5849 13.9731C14.1597 13.1129 14.9766 12.4424 15.9324 12.0465C16.8882 11.6506 17.94 11.547 18.9546 11.7489C19.9693 11.9507 20.9013 12.4489 21.6329 13.1804C22.3644 13.9119 22.8626 14.844 23.0644 15.8586C23.2663 16.8733 23.1627 17.9251 22.7668 18.8809C22.3709 19.8366 21.7004 20.6536 20.8402 21.2283C19.98 21.8031 18.9687 22.1099 17.9342 22.1099C16.9445 22.1117 15.9749 21.8311 15.1391 21.3013C15.0647 21.2542 14.9812 21.2237 14.894 21.2117C14.8069 21.1997 14.7181 21.2065 14.6339 21.2317L12.8615 21.7604L13.5292 20.1991C13.568 20.1082 13.5844 20.0093 13.5769 19.9108C13.5694 19.8122 13.5383 19.7169 13.4862 19.633C12.9729 18.8063 12.7017 17.8522 12.7034 16.8791ZM17.9342 10.4176C14.3655 10.4176 11.4726 13.3105 11.4726 16.8791C11.4726 18.0102 11.7637 19.0748 12.2757 20.001L11.2142 22.4834C11.1682 22.591 11.1539 22.7094 11.1728 22.8248C11.1917 22.9402 11.2431 23.0478 11.321 23.135C11.3989 23.2223 11.5 23.2855 11.6125 23.3173C11.725 23.3492 11.8443 23.3483 11.9563 23.3148L14.7255 22.489C15.7022 23.0486 16.8085 23.3423 17.9342 23.3407C21.5028 23.3407 24.3957 20.4477 24.3957 16.8791C24.3957 13.3105 21.5028 10.4176 17.9342 10.4176ZM19.3452 18.2219L18.536 18.7917C18.0901 18.5352 17.6807 18.22 17.3188 17.8545C16.9302 17.4664 16.5942 17.0291 16.3194 16.5536L16.8332 16.1173C16.9403 16.0264 17.0131 15.9017 17.0395 15.7638C17.0659 15.6259 17.0444 15.4831 16.9785 15.3591L16.3237 14.1284C16.2801 14.0466 16.2187 13.9758 16.1439 13.9211C16.0691 13.8664 15.983 13.8293 15.8919 13.8126C15.8008 13.7958 15.7071 13.7999 15.6177 13.8244C15.5284 13.8489 15.4458 13.8933 15.376 13.9542L15.1815 14.1234C14.7145 14.5308 14.4382 15.2004 14.6671 15.8785C15.0354 16.9512 15.6449 17.9251 16.4486 18.7253C17.5643 19.841 18.6979 20.2804 19.3612 20.4514C19.8954 20.5887 20.4006 20.4047 20.7569 20.1142L21.1206 19.8176C21.1973 19.7551 21.2578 19.675 21.2969 19.5841C21.336 19.4932 21.3527 19.3943 21.3455 19.2956C21.3382 19.1969 21.3073 19.1014 21.2553 19.0173C21.2033 18.9331 21.1318 18.8627 21.0468 18.812L20.0142 18.1967C19.9121 18.1357 19.7945 18.1057 19.6757 18.1102C19.5568 18.1146 19.4419 18.1535 19.3446 18.2219H19.3452Z" fill="white"/>
</svg>
