<svg width="36" height="37" viewBox="0 0 36 37" fill="none" xmlns="http://www.w3.org/2000/svg">
<path d="M21.115 36.116C12.1277 38.5953 -5.07119 15.3528 1.43647 6.36582C4.35222 2.3392 9.2606 1.69525 14.917 0.787655C21.8852 -0.330416 29.748 -0.854465 33.5109 3.42178C40.3284 11.1693 30.1023 33.6368 21.115 36.116Z" fill="#393B44"/>
<path d="M17.8648 23.6296H17.8441C17.7798 23.6296 11.3524 23.6174 9.73076 23.1849C8.83904 22.949 8.14265 22.2647 7.90293 21.3888C7.61133 19.7731 7.47052 18.1347 7.48224 16.4939C7.47471 14.8504 7.61933 13.2097 7.91433 11.5919C8.16064 10.7152 8.85397 10.0277 9.74423 9.77743C11.3213 9.37037 17.5715 9.37037 17.8368 9.37037H17.8586C17.9238 9.37037 24.3679 9.38258 25.9729 9.81508C26.8627 10.0522 27.5577 10.7351 27.7987 11.6092C28.0995 13.2309 28.2408 14.8772 28.2204 16.5254C28.2276 18.1669 28.0827 19.8057 27.7873 21.4213C27.5444 22.2961 26.8476 22.979 25.9563 23.2154C24.3813 23.6256 18.13 23.6296 17.8648 23.6296ZM15.7924 13.446L15.7872 19.5519L21.1878 16.499L15.7924 13.446Z" fill="white"/>
</svg>
