<svg width="35" height="35" viewBox="0 0 35 35" fill="none" xmlns="http://www.w3.org/2000/svg">
<circle cx="17.1969" cy="17.1969" r="16.6969" fill="#636363" stroke="#F1F3F8"/>
<path fill-rule="evenodd" clip-rule="evenodd" d="M10.8068 17.6234C10.8068 16.2752 11.2066 14.9573 11.9556 13.8363C12.7046 12.7153 13.7692 11.8416 15.0148 11.3257C16.2604 10.8098 17.631 10.6748 18.9533 10.9378C20.2755 11.2008 21.4901 11.85 22.4435 12.8034C23.3968 13.7567 24.046 14.9713 24.309 16.2936C24.572 17.6158 24.437 18.9864 23.9211 20.232C23.4052 21.4776 22.5315 22.5422 21.4105 23.2912C20.2895 24.0402 18.9716 24.44 17.6234 24.44C16.3337 24.4423 15.0702 24.0767 13.981 23.3862C13.8841 23.3249 13.7752 23.2851 13.6616 23.2695C13.548 23.2539 13.4324 23.2628 13.3225 23.2956L11.0129 23.9845L11.883 21.9499C11.9336 21.8315 11.9549 21.7026 11.9452 21.5742C11.9354 21.4457 11.8948 21.3216 11.8269 21.2121C11.158 20.1348 10.8046 18.8915 10.8068 17.6234V17.6234ZM17.6234 9.20293C12.9729 9.20293 9.20293 12.9729 9.20293 17.6234C9.20293 19.0974 9.58225 20.4848 10.2495 21.6917L8.86611 24.9268C8.80624 25.0669 8.78753 25.2212 8.81218 25.3716C8.83684 25.522 8.90383 25.6622 9.00531 25.7759C9.10679 25.8896 9.23857 25.972 9.3852 26.0135C9.53184 26.055 9.68726 26.0538 9.83326 26.0102L13.442 24.934C14.7148 25.6633 16.1565 26.046 17.6234 26.0439C22.2739 26.0439 26.0439 22.2739 26.0439 17.6234C26.0439 12.9729 22.2739 9.20293 17.6234 9.20293ZM19.4623 19.3733L18.4077 20.1159C17.8267 19.7816 17.2932 19.3708 16.8215 18.8945C16.3151 18.3888 15.8772 17.8188 15.5191 17.1992L16.1887 16.6306C16.3283 16.5122 16.4231 16.3497 16.4575 16.17C16.492 15.9902 16.4639 15.8042 16.378 15.6426L15.5247 14.0387C15.4679 13.9322 15.3878 13.8398 15.2904 13.7686C15.193 13.6973 15.0807 13.649 14.962 13.6272C14.8432 13.6054 14.7211 13.6106 14.6047 13.6426C14.4883 13.6745 14.3806 13.7324 14.2897 13.8117L14.0363 14.0323C13.4276 14.5632 13.0675 15.4357 13.3659 16.3194C13.8458 17.7173 14.6401 18.9865 15.6875 20.0293C17.1414 21.4832 18.6186 22.0558 19.4831 22.2787C20.1792 22.4576 20.8376 22.2178 21.302 21.8393L21.7759 21.4527C21.8758 21.3712 21.9546 21.2669 22.0056 21.1484C22.0566 21.03 22.0783 20.9011 22.0689 20.7725C22.0595 20.6439 22.0191 20.5195 21.9514 20.4098C21.8836 20.3001 21.7904 20.2083 21.6797 20.1423L20.334 19.3404C20.2009 19.261 20.0477 19.2218 19.8929 19.2277C19.738 19.2335 19.5882 19.2841 19.4615 19.3733H19.4623Z" fill="#F1F3F8"/>
</svg>
