<svg width="36" height="37" viewBox="0 0 36 37" fill="none" xmlns="http://www.w3.org/2000/svg">
<path d="M21.115 36.116C12.1277 38.5953 -5.07119 15.3528 1.43647 6.36582C4.35222 2.3392 9.2606 1.69525 14.917 0.787655C21.8852 -0.330416 29.748 -0.854465 33.5109 3.42178C40.3284 11.1693 30.1023 33.6368 21.115 36.116Z" fill="#CEC7B5"/>
<path d="M8.23969 17.7984C8.24088 22.8468 11.912 27.1453 16.898 27.9365V20.7642H14.2945V17.7984H16.9011V15.5406C16.7846 14.4708 17.15 13.4046 17.8982 12.6312C18.6465 11.8578 19.7 11.4573 20.7731 11.5383C21.5433 11.5508 22.3116 11.6194 23.0719 11.7436V14.2671H21.7747C21.3281 14.2086 20.8792 14.3561 20.5543 14.668C20.2294 14.9799 20.0637 15.4225 20.104 15.8711V17.7984H22.9477L22.4931 20.7652H20.104V27.9365C25.4963 27.0843 29.2776 22.1596 28.7085 16.7301C28.1393 11.3006 23.419 7.26706 17.9672 7.55158C12.5153 7.8361 8.24055 12.3391 8.23969 17.7984Z" fill="white"/>
</svg>
