<svg width="36" height="37" viewBox="0 0 36 37" fill="none" xmlns="http://www.w3.org/2000/svg">
<path d="M21.115 36.116C12.1277 38.5953 -5.07119 15.3528 1.43647 6.36582C4.35222 2.3392 9.2606 1.69525 14.917 0.787655C21.8852 -0.330416 29.748 -0.854465 33.5109 3.42178C40.3284 11.1693 30.1023 33.6368 21.115 36.116Z" fill="#CEC7B5"/>
<path d="M17.8647 23.6296H17.844C17.7798 23.6296 11.3523 23.6174 9.7307 23.1849C8.83898 22.949 8.14259 22.2647 7.90287 21.3888C7.61127 19.7731 7.47045 18.1347 7.48218 16.4939C7.47465 14.8504 7.61927 13.2096 7.91427 11.5919C8.16058 10.7152 8.85391 10.0277 9.74417 9.77742C11.3212 9.37036 17.5715 9.37036 17.8367 9.37036H17.8585C17.9238 9.37036 24.3678 9.38257 25.9728 9.81507C26.8627 10.0522 27.5577 10.7351 27.7986 11.6092C28.0995 13.2308 28.2407 14.8772 28.2203 16.5254C28.2276 18.1669 28.0826 19.8057 27.7872 21.4213C27.5444 22.2961 26.8476 22.979 25.9563 23.2154C24.3813 23.6256 18.13 23.6296 17.8647 23.6296ZM15.7924 13.446L15.7872 19.5519L21.1878 16.499L15.7924 13.446Z" fill="white"/>
</svg>
