<svg width="36" height="37" viewBox="0 0 36 37" fill="none" xmlns="http://www.w3.org/2000/svg">
<path d="M21.115 36.116C12.1277 38.5953 -5.07119 15.3528 1.43647 6.36582C4.35222 2.3392 9.2606 1.69525 14.917 0.787654C21.8852 -0.330417 29.748 -0.854465 33.5109 3.42178C40.3284 11.1693 30.1023 33.6368 21.115 36.116Z" fill="#CEC7B5"/>
<path d="M17.8538 25.938C15.4621 25.938 15.1802 25.9254 14.2468 25.8845C13.519 25.8606 12.8006 25.7127 12.1225 25.447C10.9494 24.9905 10.0217 24.0625 9.5656 22.8891C9.3102 22.2086 9.17245 21.4896 9.15823 20.7629C9.10379 19.8315 9.10379 19.5262 9.10379 17.153C9.10379 14.7545 9.11643 14.4745 9.15823 13.5461C9.17276 12.8203 9.31051 12.1023 9.5656 11.4227C10.0212 10.2478 10.9504 9.31902 12.1255 8.86385C12.8047 8.60738 13.5229 8.46927 14.2488 8.45552C15.1773 8.40302 15.4825 8.40302 17.8538 8.40302C20.2649 8.40302 20.542 8.41565 21.4607 8.45552C22.1885 8.46939 22.9086 8.60748 23.5899 8.86385C24.7646 9.31953 25.6936 10.2482 26.1498 11.4227C26.4095 12.1122 26.5479 12.8415 26.5591 13.5782C26.6135 14.5095 26.6135 14.8138 26.6135 17.1861C26.6135 19.5583 26.5999 19.8694 26.5591 20.7901C26.5446 21.5175 26.4065 22.2372 26.1507 22.9183C25.6935 24.0925 24.7644 25.0208 23.5899 25.4772C22.9096 25.7321 22.191 25.8698 21.4646 25.8845C20.5362 25.938 20.2318 25.938 17.8538 25.938ZM17.8207 9.94204C15.4427 9.94204 15.1957 9.95371 14.2673 9.99552C13.7131 10.0029 13.1643 10.1051 12.6446 10.2979C11.8773 10.5915 11.2701 11.1962 10.9734 11.9623C10.7791 12.4876 10.6769 13.0424 10.671 13.6025C10.6195 14.5445 10.6195 14.7915 10.6195 17.153C10.6195 19.4863 10.6282 19.7693 10.671 20.7055C10.6797 21.2599 10.7819 21.8088 10.9734 22.3291C11.2706 23.0947 11.8776 23.699 12.6446 23.9926C13.1639 24.1866 13.713 24.2889 14.2673 24.295C15.2084 24.3494 15.4563 24.3494 17.8207 24.3494C20.2056 24.3494 20.4525 24.3377 21.3732 24.295C21.9278 24.2882 22.477 24.1859 22.9969 23.9926C23.7595 23.6964 24.3628 23.0936 24.6594 22.3311C24.8532 21.8053 24.9555 21.2503 24.9617 20.69H24.9724C25.0142 19.7605 25.0142 19.5126 25.0142 17.1375C25.0142 14.7623 25.0035 14.5125 24.9617 13.584C24.953 13.0303 24.8508 12.482 24.6594 11.9623C24.3634 11.1987 23.7601 10.5947 22.9969 10.2979C22.4771 10.1042 21.9278 10.0019 21.3732 9.99552C20.4331 9.94204 20.1871 9.94204 17.8207 9.94204ZM17.8538 21.6437C16.0357 21.6449 14.396 20.5507 13.6994 18.8714C13.0027 17.1921 13.3863 15.2585 14.6714 13.9724C15.9564 12.6862 17.8896 12.3009 19.5695 12.9961C21.2494 13.6913 22.3451 15.3301 22.3455 17.1482C22.3428 19.6284 20.334 21.6389 17.8538 21.6437ZM17.8538 14.2295C16.243 14.2295 14.9371 15.5354 14.9371 17.1462C14.9371 18.757 16.243 20.0629 17.8538 20.0629C19.4646 20.0629 20.7705 18.757 20.7705 17.1462C20.7667 15.5369 19.4631 14.2333 17.8538 14.2295ZM22.5205 13.5364C21.9424 13.5342 21.4752 13.0644 21.4763 12.4864C21.4774 11.9083 21.9463 11.4402 22.5243 11.4402C23.1024 11.4402 23.5713 11.9083 23.5724 12.4863C23.5727 12.7652 23.4619 13.0328 23.2645 13.2298C23.0671 13.4268 22.7994 13.5371 22.5205 13.5364Z" fill="white"/>
</svg>
