<svg width="27" height="28" viewBox="0 0 27 28" fill="none" xmlns="http://www.w3.org/2000/svg">
<rect width="27" height="28" rx="10" fill="#4267B2"/>
<path d="M5.58496 14.5016C5.58588 18.3962 8.41786 21.7122 12.2643 22.3225V16.7896H10.2558V14.5016H12.2666V12.76C12.1767 11.9347 12.4586 11.1122 13.0358 10.5155C13.6131 9.9189 14.4258 9.60994 15.2536 9.67247C15.8478 9.68207 16.4404 9.73499 17.0269 9.83081V11.7775H16.0263C15.6818 11.7324 15.3354 11.8462 15.0848 12.0868C14.8342 12.3274 14.7064 12.6688 14.7374 13.0149V14.5016H16.9311L16.5804 16.7903H14.7374V22.3225C18.8972 21.6651 21.8142 17.866 21.3752 13.6776C20.9361 9.4891 17.2947 6.3775 13.089 6.59699C8.88333 6.81648 5.58563 10.2902 5.58496 14.5016Z" fill="white"/>
</svg>
