<svg width="27" height="28" viewBox="0 0 27 28" fill="none" xmlns="http://www.w3.org/2000/svg">
<rect width="27" height="28" rx="10" fill="#833AB4"/>
<path d="M13.0015 20.7808C11.1565 20.7808 10.939 20.771 10.219 20.7395C9.65749 20.7211 9.10329 20.6069 8.58022 20.402C7.6752 20.0498 6.95957 19.3339 6.60771 18.4288C6.41069 17.9038 6.30443 17.3492 6.29346 16.7885C6.25146 16.07 6.25146 15.8345 6.25146 14.0038C6.25146 12.1535 6.26121 11.9375 6.29346 11.2213C6.30467 10.6614 6.41093 10.1075 6.60771 9.58328C6.95919 8.67693 7.67598 7.96041 8.58247 7.60928C9.10645 7.41144 9.66048 7.30489 10.2205 7.29428C10.9367 7.25378 11.1722 7.25378 13.0015 7.25378C14.8615 7.25378 15.0752 7.26353 15.784 7.29428C16.3454 7.30498 16.9009 7.41152 17.4265 7.60928C18.3327 7.96081 19.0493 8.67719 19.4012 9.58328C19.6016 10.1152 19.7084 10.6777 19.717 11.246C19.759 11.9645 19.759 12.1993 19.759 14.0293C19.759 15.8593 19.7485 16.0993 19.717 16.8095C19.7058 17.3707 19.5993 17.9258 19.402 18.4513C19.0492 19.3571 18.3325 20.0732 17.4265 20.4253C16.9017 20.6219 16.3473 20.7282 15.787 20.7395C15.0707 20.7808 14.836 20.7808 13.0015 20.7808ZM12.976 8.44103C11.1415 8.44103 10.951 8.45003 10.2347 8.48228C9.8072 8.48795 9.38382 8.56684 8.98297 8.71553C8.39103 8.94204 7.92264 9.40853 7.69372 9.99953C7.54387 10.4048 7.46497 10.8328 7.46047 11.2648C7.42071 11.9915 7.42072 12.182 7.42072 14.0038C7.42072 15.8038 7.42747 16.022 7.46047 16.7443C7.46718 17.1719 7.54604 17.5954 7.69372 17.9968C7.92297 18.5874 8.39129 19.0535 8.98297 19.28C9.38355 19.4297 9.8071 19.5086 10.2347 19.5133C10.9607 19.5553 11.152 19.5553 12.976 19.5553C14.8157 19.5553 15.0062 19.5463 15.7165 19.5133C16.1443 19.5081 16.568 19.4292 16.969 19.28C17.5573 19.0516 18.0227 18.5865 18.2515 17.9983C18.401 17.5927 18.4799 17.1645 18.4847 16.7323H18.493C18.5252 16.0153 18.5252 15.824 18.5252 13.9918C18.5252 12.1595 18.517 11.9668 18.4847 11.2505C18.478 10.8234 18.3991 10.4004 18.2515 9.99953C18.0232 9.41046 17.5578 8.9445 16.969 8.71553C16.5681 8.56609 16.1443 8.48718 15.7165 8.48228C14.9912 8.44103 14.8015 8.44103 12.976 8.44103ZM13.0015 17.468C11.599 17.4689 10.334 16.6248 9.79661 15.3294C9.25919 14.0339 9.55515 12.5423 10.5464 11.5501C11.5377 10.558 13.0291 10.2607 14.325 10.797C15.621 11.3333 16.4662 12.5975 16.4665 14C16.4644 15.9133 14.9148 17.4643 13.0015 17.468ZM13.0015 11.7485C11.7588 11.7485 10.7515 12.7559 10.7515 13.9985C10.7515 15.2412 11.7588 16.2485 13.0015 16.2485C14.2441 16.2485 15.2515 15.2412 15.2515 13.9985C15.2486 12.7571 14.2429 11.7514 13.0015 11.7485ZM16.6015 11.2138C16.1555 11.2121 15.7951 10.8497 15.796 10.4038C15.7968 9.95786 16.1585 9.59679 16.6045 9.59679C17.0504 9.59679 17.4121 9.95785 17.413 10.4038C17.4132 10.6189 17.3277 10.8253 17.1754 10.9773C17.0231 11.1293 16.8166 11.2144 16.6015 11.2138Z" fill="white"/>
</svg>
