<svg width="48" height="48" viewBox="0 0 48 48" fill="none" xmlns="http://www.w3.org/2000/svg">
<g filter="url(#filter0_d)">
<rect width="27" height="27" rx="5" transform="matrix(-1 0 0 1 38 10)" fill="black" fill-opacity="0.5"/>
</g>
<path fill-rule="evenodd" clip-rule="evenodd" d="M32.5 18C32.5 17.4477 32.0523 17 31.5 17H16.5C15.9477 17 15.5 17.4477 15.5 18C15.5 18.5523 15.9477 19 16.5 19H31.5C32.0523 19 32.5 18.5523 32.5 18ZM33 23C33 22.4477 32.5523 22 32 22H19C18.4477 22 18 22.4477 18 23C18 23.5523 18.4477 24 19 24H32C32.5523 24 33 23.5523 33 23ZM32 27C32.5523 27 33 27.4477 33 28C33 28.5523 32.5523 29 32 29H24C23.4477 29 23 28.5523 23 28C23 27.4477 23.4477 27 24 27H32Z" fill="white"/>
<defs>
<filter id="filter0_d" x="7" y="10" width="35" height="35" filterUnits="userSpaceOnUse" color-interpolation-filters="sRGB">
<feFlood flood-opacity="0" result="BackgroundImageFix"/>
<feColorMatrix in="SourceAlpha" type="matrix" values="0 0 0 0 0 0 0 0 0 0 0 0 0 0 0 0 0 0 127 0"/>
<feOffset dy="4"/>
<feGaussianBlur stdDeviation="2"/>
<feColorMatrix type="matrix" values="0 0 0 0 0 0 0 0 0 0 0 0 0 0 0 0 0 0 0.25 0"/>
<feBlend mode="normal" in2="BackgroundImageFix" result="effect1_dropShadow"/>
<feBlend mode="normal" in="SourceGraphic" in2="effect1_dropShadow" result="shape"/>
</filter>
</defs>
</svg>
