<svg width="18" height="12" viewBox="0 0 18 12" fill="none" xmlns="http://www.w3.org/2000/svg">
<path fill-rule="evenodd" clip-rule="evenodd" d="M17.5 1C17.5 0.447715 17.0523 0 16.5 0H1.5C0.947716 0 0.5 0.447715 0.5 1C0.5 1.55228 0.947716 2 1.5 2H16.5C17.0523 2 17.5 1.55228 17.5 1ZM18 6C18 5.44772 17.5523 5 17 5H4C3.44771 5 3 5.44772 3 6C3 6.55228 3.44771 7 4 7H17C17.5523 7 18 6.55228 18 6ZM17 10C17.5523 10 18 10.4477 18 11C18 11.5523 17.5523 12 17 12H9C8.44771 12 8 11.5523 8 11C8 10.4477 8.44771 10 9 10H17Z" fill="white"/>
</svg>
