<svg width="14" height="14" viewBox="0 0 14 14" fill="none" xmlns="http://www.w3.org/2000/svg">
<path fill-rule="evenodd" clip-rule="evenodd" d="M1.70351 6.87914C1.70351 5.84459 2.01029 4.83328 2.58506 3.97308C3.15982 3.11289 3.97676 2.44244 4.93255 2.04654C5.88835 1.65064 6.94008 1.54705 7.95475 1.74888C8.96942 1.95071 9.90146 2.44889 10.633 3.18043C11.3645 3.91196 11.8627 4.844 12.0645 5.85867C12.2664 6.87334 12.1628 7.92507 11.7669 8.88087C11.371 9.83667 10.7005 10.6536 9.84034 11.2284C8.98015 11.8031 7.96883 12.1099 6.93428 12.1099C5.94465 12.1117 4.97504 11.8312 4.13921 11.3013C4.06486 11.2543 3.98129 11.2237 3.89413 11.2117C3.80698 11.1997 3.71827 11.2066 3.63397 11.2318L1.86167 11.7604L2.52936 10.1991C2.56817 10.1082 2.58452 10.0093 2.57702 9.9108C2.56952 9.81225 2.5384 9.71696 2.48628 9.63299C1.97301 8.80628 1.70182 7.85222 1.70351 6.87914ZM6.93428 0.417603C3.36567 0.417603 0.472744 3.31053 0.472744 6.87914C0.472744 8.01022 0.763821 9.07483 1.27582 10.001L0.214282 12.4834C0.168338 12.591 0.153983 12.7094 0.172901 12.8248C0.191819 12.9402 0.243225 13.0478 0.321099 13.135C0.398973 13.2223 0.500092 13.2855 0.612612 13.3174C0.725132 13.3492 0.844396 13.3483 0.956436 13.3148L3.72567 12.489C4.7023 13.0486 5.80866 13.3423 6.93428 13.3407C10.5029 13.3407 13.3958 10.4478 13.3958 6.87914C13.3958 3.31053 10.5029 0.417603 6.93428 0.417603ZM8.34536 8.22191L7.53613 8.79176C7.09027 8.53523 6.68086 8.22001 6.3189 7.85453C5.9303 7.46646 5.59431 7.02909 5.31951 6.5536L5.83336 6.11729C5.94043 6.02645 6.01321 5.90173 6.03963 5.76382C6.06605 5.62591 6.04451 5.48312 5.97859 5.35914L5.32382 4.12837C5.28025 4.04663 5.21879 3.97579 5.14402 3.92111C5.06925 3.86644 4.9831 3.82935 4.892 3.8126C4.8009 3.79586 4.70719 3.7999 4.61787 3.82442C4.52855 3.84894 4.44591 3.89331 4.37613 3.95422L4.18167 4.12345C3.71459 4.53083 3.43828 5.20037 3.66721 5.87853C4.03552 6.95121 4.64499 7.92511 5.44874 8.72529C6.56444 9.84099 7.69797 10.2804 8.36136 10.4514C8.89551 10.5887 9.40074 10.4047 9.75705 10.1142L10.1207 9.8176C10.1974 9.75508 10.2579 9.67498 10.297 9.58412C10.3362 9.49325 10.3528 9.39428 10.3456 9.29561C10.3383 9.19694 10.3074 9.10147 10.2554 9.01729C10.2034 8.93312 10.1319 8.86272 10.0469 8.81206L9.01428 8.19668C8.91217 8.13575 8.7946 8.10571 8.67578 8.11019C8.55696 8.11466 8.44198 8.15347 8.34474 8.22191H8.34536Z" fill="#0A6D62"/>
</svg>
