<svg width="1440" height="826" viewBox="0 0 1440 826" fill="none" xmlns="http://www.w3.org/2000/svg">
    <path opacity="0.1" d="M1949 450.299C1899.6 401.039 1817.49 328.799 1701.49 269.859C1289.86 60.7094 1048.1 370.859 469.29 251.649C371.14 231.439 -214.28 20.3294 -323.86 -342.121C-324.01 -342.631 -324.14 -343.061 -324.23 -343.351L-543.63 966.509L1795.64 1358.35C1838.6 1104.38 1906 704.269 1949 450.299Z" fill="url(#paint0_linear)"/>
    <path opacity="0.2" d="M1949 500.299C1899.6 451.039 1817.49 378.799 1701.49 319.859C1289.86 110.709 1048.1 420.859 469.29 301.649C371.14 281.439 -214.28 70.3294 -323.86 -292.121C-324.01 -292.631 -324.14 -293.061 -324.23 -293.351L-543.63 1016.51L1795.64 1408.35C1838.6 1154.38 1906 754.269 1949 500.299Z" fill="url(#paint1_linear)"/>
    <path d="M1949 530.609C1899.6 481.359 1817.49 409.119 1701.49 350.179C1289.85 140.999 1048.09 451.19 469.28 332C371.14 311.75 -214.28 100.639 -323.86 -261.801C-324.01 -262.321 -324.14 -262.741 -324.23 -263.031L-543.63 1046.82L1795.64 1438.66C1838.6 1184.7 1906 784.579 1949 530.609Z" fill="url(#paint2_linear)"/>
    <path d="M1927.82 582.789C1874.68 537.579 1787.13 472.049 1666.82 422.43C1252.76 251.659 1002.87 551.83 429.88 465.69C54.64 409.27 -114.29 207.89 -155.22 170.5C-285.63 51.3595 -352.9 -85.4605 -388 -176.76L-503.46 1146.32L1859.42 1352.48L1927.82 582.789Z" fill="url(#paint3_linear)"/>
    <defs>
        <linearGradient id="paint0_linear" x1="846.005" y1="-147.343" x2="626.575" y2="1162.51" gradientUnits="userSpaceOnUse">
            <stop stop-color="#7869C4"/>
            <stop offset="1" stop-color="#673AB7"/>
        </linearGradient>
        <linearGradient id="paint1_linear" x1="1.72341e+06" y1="-1.7915e+06" x2="1.72341e+06" y2="-4.05156e+06" gradientUnits="userSpaceOnUse">
            <stop stop-color="#7869C4"/>
            <stop offset="1" stop-color="#673AB7"/>
        </linearGradient>
        <linearGradient id="paint2_linear" x1="846.006" y1="-67.0291" x2="626.576" y2="1242.83" gradientUnits="userSpaceOnUse">
            <stop stop-color="#7869C4"/>
            <stop offset="1" stop-color="#673AB7"/>
        </linearGradient>
        <linearGradient id="paint3_linear" x1="-2.22761e+06" y1="1.49367e+06" x2="-2.40427e+06" y2="3.51697e+06" gradientUnits="userSpaceOnUse">
            <stop stop-color="#673AB7"/>
            <stop offset="1" stop-color="#7869C4"/>
        </linearGradient>
    </defs>
</svg>
